<svg id="Layer_1" data-name="Layer 1" xmlns="http://www.w3.org/2000/svg" viewBox="0 0 393.88 417.96"><defs><style>.cls-1{fill:#fff;}.cls-2,.cls-3{fill:none;stroke:#fff;stroke-linecap:round;stroke-miterlimit:10;}.cls-2{stroke-width:12px;}.cls-3{stroke-width:4px;}</style></defs><path class="cls-1" d="M65.91,450.32V386.51H78.75a28.35,28.35,0,0,1,10.56,1.69,11.78,11.78,0,0,1,6.18,5.44,20.69,20.69,0,0,1,2,9.81,26.5,26.5,0,0,1-.79,6.73,12.88,12.88,0,0,1-2.52,5.12,9.78,9.78,0,0,1-4.57,3l9.06,32H90.09l-8.35-29.94H74.81v29.94ZM74.81,414H78.2a16.75,16.75,0,0,0,6.14-.94,6.35,6.35,0,0,0,3.47-3.23,15.08,15.08,0,0,0,1.1-6.38q0-5.59-2-8.08c-1.36-1.65-4.07-2.48-8.11-2.48H74.81Z" transform="translate(-59.06 -33.07)"/><path class="cls-1" d="M109.55,450.32V386.51h24.74v6.62H118.45v21.11h12.84v6.3H118.45v23.4h16v6.38Z" transform="translate(-59.06 -33.07)"/><path class="cls-1" d="M140.91,450.32l13.55-63.81H163l13.63,63.81h-8.43l-2.91-16.07h-13l-3.07,16.07Zm12.6-22.45h10.64l-5.36-28.76Z" transform="translate(-59.06 -33.07)"/><path class="cls-1" d="M185.89,450.32V386.51h8.9v57.43H211.1v6.38Z" transform="translate(-59.06 -33.07)"/><path class="cls-1" d="M240.72,450.32V386.51h24.73v6.62H249.62v21.11h12.84v6.3H249.62v23.4h16v6.38Z" transform="translate(-59.06 -33.07)"/><path class="cls-1" d="M290.58,451a16.7,16.7,0,0,1-9.18-2.36,14.94,14.94,0,0,1-5.55-6.54,27.17,27.17,0,0,1-2.21-9.69l7.88-2.13a34.88,34.88,0,0,0,1.07,6.54A11.69,11.69,0,0,0,285.3,442a6.9,6.9,0,0,0,5.28,2,6.79,6.79,0,0,0,5.24-1.93,8,8,0,0,0,1.77-5.56,11.34,11.34,0,0,0-2-7,36.42,36.42,0,0,0-5-5.32L280,414.79a18.09,18.09,0,0,1-4.65-6,19.32,19.32,0,0,1-1.5-8.07q0-7,4-10.87T288.77,386a20.75,20.75,0,0,1,6.66,1,11.74,11.74,0,0,1,4.8,3,14.9,14.9,0,0,1,3.07,5.16,28.77,28.77,0,0,1,1.54,7.29l-7.56,2.05a31,31,0,0,0-.95-5.79,8.57,8.57,0,0,0-2.48-4.25,7.26,7.26,0,0,0-5.08-1.62,7.15,7.15,0,0,0-5.16,1.77,6.94,6.94,0,0,0-1.85,5.24,10.44,10.44,0,0,0,1,4.81,14.12,14.12,0,0,0,3.19,3.86l10.8,9.45a34,34,0,0,1,6.38,7.52,19,19,0,0,1,2.76,10.36,16.14,16.14,0,0,1-2,8.16,13.41,13.41,0,0,1-5.4,5.24A16.79,16.79,0,0,1,290.58,451Z" transform="translate(-59.06 -33.07)"/><path class="cls-1" d="M322.57,450.32V393.13h-10.8v-6.62h30.17v6.62H331.47v57.19Z" transform="translate(-59.06 -33.07)"/><path class="cls-1" d="M344.15,450.32l13.55-63.81h8.59l13.63,63.81h-8.43l-2.92-16.07h-13l-3.07,16.07Zm12.61-22.45h10.63L362,399.11Z" transform="translate(-59.06 -33.07)"/><path class="cls-1" d="M392.92,450.32V393.13h-10.8v-6.62h30.17v6.62H401.82v57.19Z" transform="translate(-59.06 -33.07)"/><path class="cls-1" d="M421.2,450.32V386.51h24.73v6.62H430.1v21.11h12.84v6.3H430.1v23.4h16v6.38Z" transform="translate(-59.06 -33.07)"/><path class="cls-1" d="M192.45,340.22a13.71,13.71,0,0,1-14.32,14.32H111.55V152.6h66.06a13.71,13.71,0,0,1,14.33,14.32v60q0,8-7.23,13.42l-14.19,8.52,15.22,9.81q6.72,4.13,6.71,12.9Zm-18.58-111V168.47H129.48v72.91h26.46Zm.52,109.42V268.86L156.19,257H129.48v81.68Z" transform="translate(-59.06 -33.07)"/><path class="cls-1" d="M302.65,313.74a14.41,14.41,0,0,1-4.07,10.6,14,14,0,0,1-10.38,4.11H231.68a13.78,13.78,0,0,1-10.33-4.11,14.53,14.53,0,0,1-4-10.6v-178a14.54,14.54,0,0,1,4-10.6A13.78,13.78,0,0,1,231.68,121H288.2a14,14,0,0,1,10.38,4.11,14.43,14.43,0,0,1,4.07,10.6Zm-17.94-1.59V137.3H235.29V312.15Z" transform="translate(-59.06 -33.07)"/><path class="cls-1" d="M411.62,318q0,16-10.52,26.26t-26.52,10.25h-46.2V152.6h46.2q16.13,0,26.58,10.25t10.46,26.26Zm-17.94-1.81V190.66q0-9.93-6.26-16.06t-16.19-6.13H346.32v170.2h23.87q10.46,0,17-6T393.68,316.22Z" transform="translate(-59.06 -33.07)"/><line class="cls-2" x1="196.28" y1="6" x2="6" y2="115.67"/><line class="cls-3" x1="196.28" y1="24.5" x2="31.11" y2="119.64"/><line class="cls-3" x1="197.6" y1="24.5" x2="362.77" y2="119.64"/><line class="cls-2" x1="197.6" y1="6" x2="387.88" y2="115.67"/><polyline class="cls-1" points="278.27 52.34 278.27 11.29 295.38 11.29 295.38 62.2"/></svg>